<svg xmlns="http://www.w3.org/2000/svg" width="33.499" height="33.5"><defs><linearGradient id="a" x1=".041" y1=".064" x2=".959" y2=".982" gradientUnits="objectBoundingBox"><stop offset="0" stop-color="#fff" stop-opacity="0"/><stop offset="1" stop-color="#fff" stop-opacity=".102"/></linearGradient></defs><g data-name="5448859_box_christmas_gift_present_xmas_icon" transform="translate(-1 -.999)"><path data-name="Контур 2" d="M33.737 4.046h-5.048a3.289 3.289 0 00-.47-2.472A1.687 1.687 0 0026.885 1a12.249 12.249 0 00-6.443 3.045h-5.2A12.361 12.361 0 008.613 1a1.687 1.687 0 00-1.334.573 3.289 3.289 0 00-.47 2.472H1.761A.761.761 0 001 4.807V10.9a.761.761 0 00.761.761h.761v22.077a.761.761 0 00.761.761h28.932a.761.761 0 00.761-.761V11.659h.761a.761.761 0 00.763-.759V4.807a.761.761 0 00-.761-.761z"/><path data-name="Контур 3" d="M21.816 12.719l-.78-.259a.76.76 0 00-.963.481l-.082.244-.958-2.554-.257-.684a3.028 3.028 0 00.961-.566c.264.132.615.3 1.027.5z" fill="#e83628"/><path data-name="Контур 4" d="M14.801 9.941a55.5 55.5 0 001.057-.481 3.024 3.024 0 00.864.486l-.257.684-.958 2.554-.082-.244a.761.761 0 00-.963-.481l-.742.245z" fill="#e83628"/><path data-name="Контур 5" d="M16.227 15.604l1.48-3.945h.085l1.48 3.945v17.372h-3.045z" fill="#e83628"/><path data-name="Контур 6" d="M17.727 11.659h-.02l-1.48 3.945v17.372h.761V15.604z" fill="#fff" opacity=".2"/><path data-name="Контур 7" d="M17.792 11.659h-.021l.74 3.945v17.372h.761V15.604z" opacity=".2"/><path data-name="Контур 8" d="M2.523 5.568h4.49a5.787 5.787 0 01.078.761l-.007.462a9.723 9.723 0 00.333 3.344H2.523z" fill="#fff"/><path data-name="Контур 9" d="M4.045 11.659h8.449l-.784 2.007a.761.761 0 00.95 1l1.561-.52.482 1.444v17.386H4.045z" fill="#fff"/><path data-name="Контур 10" d="M31.454 32.976H20.795V15.588l.482-1.444 1.561.52a.761.761 0 00.957-.985l-.747-2.02h8.406z" fill="#fff"/><path data-name="Контур 11" d="M32.976 10.136h-4.894a9.723 9.723 0 00.333-3.344l-.007-.462a5.787 5.787 0 01.078-.762h4.49z" fill="#fff"/><path data-name="Контур 12" d="M27.065 2.567c.282.328.076 1.694-.034 2.427a10.06 10.06 0 00-.146 1.335l.007.494c.017.865.054 2.665-.465 3.2-.446.45-3.723-.888-5.82-1.912a2.923 2.923 0 00-.039-2.157c2.074-1.924 4.81-3.432 6.317-3.432a.251.251 0 01.18.044z" fill="#e83628"/><circle data-name="Эллипс 1" cx="1.595" cy="1.595" r="1.595" transform="translate(16.155 5.785)" fill="#e83628"/><path data-name="Контур 13" d="M18.064 5.632a1.265 1.265 0 11-1.8 1.295 1.416 1.416 0 00-.037.163 1.523 1.523 0 103.045 0 1.5 1.5 0 00-1.209-1.459z" opacity=".2"/><path data-name="Контур 14" d="M8.434 2.567a.251.251 0 01.18-.045 11.871 11.871 0 016.368 3.314 2.97 2.97 0 00-.057 2.375c-2.163.991-5.416 2.251-5.853 1.811-.52-.531-.483-2.331-.465-3.2l.007-.494a10.061 10.061 0 00-.146-1.335c-.11-.733-.316-2.098-.034-2.426z" fill="#e83628"/><path data-name="Контур 15" d="M26.885 6.326v-.011.011z" fill="#fff" opacity=".2"/><path data-name="Контур 16" d="M26.885 4.455a.457.457 0 01.18.022c.018.01.019.038.033.052.1-.742.2-1.695-.033-1.962a.251.251 0 00-.18-.045c-1.507 0-4.244 1.507-6.317 3.427.022.053.031.111.05.166a18.572 18.572 0 016.267-1.66z" fill="#fff" opacity=".2"/><path data-name="Контур 17" d="M26.43 8.134a23.478 23.478 0 01-5.647-.9 3.105 3.105 0 01-.173.872c2.1 1.023 5.374 2.362 5.82 1.912.487-.5.485-2.1.469-3.013-.015.431-.097.941-.469 1.129z" opacity=".2"/><path data-name="Контур 18" d="M8.434 4.477a.457.457 0 01.18-.022 18.536 18.536 0 016.3 1.6c.026-.07.041-.146.072-.214a11.871 11.871 0 00-6.373-3.319.251.251 0 00-.18.044c-.23.268-.13 1.22-.03 1.962.012-.014.013-.041.031-.051z" fill="#fff" opacity=".2"/><path data-name="Контур 19" d="M9.071 8.133c-.375-.188-.457-.7-.468-1.129-.016.912-.019 2.516.468 3.014.438.444 3.69-.817 5.853-1.806a3.069 3.069 0 01-.2-.922 24.169 24.169 0 01-5.653.843z" opacity=".2"/><path data-name="Контур 20" d="M8.613 6.318v.008z" fill="#fff" opacity=".2"/><path data-name="Контур 21" d="M26.885 3.463a.313.313 0 01.18.033.486.486 0 01.117.283 2.089 2.089 0 00-.117-1.212.251.251 0 00-.18-.045c-1.507 0-4.244 1.507-6.317 3.427.01.024.014.051.023.076a13.814 13.814 0 016.294-2.563z" fill="#fff" opacity=".2"/><path data-name="Контур 22" d="M26.885 6.325v-.014.014z" fill="#fff" opacity=".2"/><path data-name="Контур 23" d="M26.43 9.102c-.439.333-3.608-.634-5.708-1.4a3.439 3.439 0 01-.112.4c2.1 1.023 5.374 2.362 5.82 1.912a4.859 4.859 0 00.472-2.7c-.012.678-.091 1.493-.472 1.788z" opacity=".2"/><path data-name="Контур 24" d="M8.433 3.496a.313.313 0 01.18-.033 13.643 13.643 0 016.335 2.472c.013-.032.019-.066.033-.1a11.871 11.871 0 00-6.368-3.313.251.251 0 00-.18.044 2.089 2.089 0 00-.117 1.212.486.486 0 01.117-.283z" fill="#fff" opacity=".2"/><path data-name="Контур 25" d="M9.071 9.101c-.384-.295-.463-1.111-.473-1.779a4.862 4.862 0 00.472 2.7c.438.444 3.69-.817 5.853-1.806a3.2 3.2 0 01-.128-.427c-2.159.734-5.297 1.64-5.724 1.312z" opacity=".2"/><path data-name="Контур 26" d="M8.613 6.316v.009z" fill="#fff" opacity=".2"/><circle data-name="Эллипс 2" cx=".269" cy=".269" r=".269" transform="translate(16.976 6.174)" fill="#fff" opacity=".2"/><path data-name="Контур 27" d="M14.222 14.144l-1.561.52a.761.761 0 01-.95-1l.783-2.005H4.045v3.045h10.364z" opacity=".2"/><path data-name="Контур 28" d="M23.047 11.659l.746 2.02a.761.761 0 01-.955.986l-1.561-.52-.187.56h10.363v-3.046z" opacity=".2"/><path data-name="Контур 29" d="M33.737 4.046h-5.048a3.289 3.289 0 00-.47-2.472A1.687 1.687 0 0026.885 1a12.249 12.249 0 00-6.443 3.045h-5.2A12.361 12.361 0 008.613 1a1.687 1.687 0 00-1.334.573 3.289 3.289 0 00-.47 2.472H1.761A.761.761 0 001 4.807V10.9a.761.761 0 00.761.761h.761v22.077a.761.761 0 00.761.761h28.932a.761.761 0 00.761-.761V11.659h.761a.761.761 0 00.763-.759V4.807a.761.761 0 00-.761-.761z" fill="url(#a)"/></g></svg>