<svg xmlns="http://www.w3.org/2000/svg" xmlns:xlink="http://www.w3.org/1999/xlink" width="33.499" height="33.5" viewBox="0 0 33.499 33.5">
  <defs>
    <linearGradient id="linear-gradient" x1="0.041" y1="0.064" x2="0.959" y2="0.982" gradientUnits="objectBoundingBox">
      <stop offset="0" stop-color="#fff" stop-opacity="0"/>
      <stop offset="1" stop-color="#fff" stop-opacity="0.102"/>
    </linearGradient>
  </defs>
  <g id="_5448859_box_christmas_gift_present_xmas_icon" data-name="5448859_box_christmas_gift_present_xmas_icon" transform="translate(-1 -0.999)">
    <path id="Контур_2" data-name="Контур 2" d="M33.737,4.046H28.689a3.289,3.289,0,0,0-.47-2.472A1.687,1.687,0,0,0,26.885,1a12.249,12.249,0,0,0-6.443,3.045h-5.2A12.361,12.361,0,0,0,8.613,1a1.687,1.687,0,0,0-1.334.573,3.289,3.289,0,0,0-.47,2.472H1.761A.761.761,0,0,0,1,4.807V10.9a.761.761,0,0,0,.761.761h.761V33.738a.761.761,0,0,0,.761.761H32.215a.761.761,0,0,0,.761-.761V11.659h.761A.761.761,0,0,0,34.5,10.9V4.807a.761.761,0,0,0-.761-.761Z" transform="translate(0 0)"/>
    <path id="Контур_3" data-name="Контур 3" d="M15.714,9.843l-.78-.259a.76.76,0,0,0-.963.481l-.082.244-.958-2.554h0l-.257-.684a3.028,3.028,0,0,0,.961-.566c.264.132.615.3,1.027.5Z" transform="translate(6.102 2.876)" fill="#e83628"/>
    <path id="Контур_4" data-name="Контур 4" d="M10.435,7.037c.423-.187.783-.353,1.057-.481a3.024,3.024,0,0,0,.864.486l-.257.684h0l-.958,2.554-.082-.244a.761.761,0,0,0-.963-.481L9.354,9.8Z" transform="translate(4.366 2.904)" fill="#e83628"/>
    <path id="Контур_5" data-name="Контур 5" d="M11,11.945,12.48,8h.085l1.48,3.945V29.317H11Z" transform="translate(5.227 3.659)" fill="#e83628"/>
    <path id="Контур_6" data-name="Контур 6" d="M12.5,8H12.48L11,11.945V29.317h.761V11.945Z" transform="translate(5.227 3.659)" fill="#fff" opacity="0.2"/>
    <path id="Контур_7" data-name="Контур 7" d="M12.035,8h-.021l.74,3.945V29.317h.761V11.945Z" transform="translate(5.757 3.659)" opacity="0.2"/>
    <path id="Контур_8" data-name="Контур 8" d="M2,4H6.49a5.787,5.787,0,0,1,.078.761l-.007.462a9.723,9.723,0,0,0,.333,3.344H2Z" transform="translate(0.523 1.568)" fill="#fff"/>
    <path id="Контур_9" data-name="Контур 9" d="M3,8h8.449l-.784,2.007a.761.761,0,0,0,.95,1l1.561-.52.482,1.444V29.317H3Z" transform="translate(1.045 3.659)" fill="#fff"/>
    <path id="Контур_10" data-name="Контур 10" d="M24.659,29.317H14V11.929l.482-1.444,1.561.52A.761.761,0,0,0,17,10.02L16.253,8h8.406Z" transform="translate(6.795 3.659)" fill="#fff"/>
    <path id="Контур_11" data-name="Контур 11" d="M23.68,8.568H18.786a9.723,9.723,0,0,0,.333-3.344l-.007-.462A5.787,5.787,0,0,1,19.19,4h4.49Z" transform="translate(9.296 1.568)" fill="#fff"/>
    <path id="Контур_12" data-name="Контур 12" d="M20.348,2.045c.282.328.076,1.694-.034,2.427a10.06,10.06,0,0,0-.146,1.335l.007.494c.017.865.054,2.665-.465,3.2-.446.45-3.723-.888-5.82-1.912a2.923,2.923,0,0,0-.039-2.157C15.925,3.508,18.661,2,20.168,2a.251.251,0,0,1,.18.044Z" transform="translate(6.717 0.522)" fill="#e83628"/>
    <circle id="Эллипс_1" data-name="Эллипс 1" cx="1.595" cy="1.595" r="1.595" transform="translate(16.155 5.785)" fill="#e83628"/>
    <path id="Контур_13" data-name="Контур 13" d="M12.837,4.042a1.265,1.265,0,1,1-1.8,1.295A1.416,1.416,0,0,0,11,5.5a1.523,1.523,0,1,0,3.045,0,1.5,1.5,0,0,0-1.209-1.459Z" transform="translate(5.227 1.59)" opacity="0.2"/>
    <path id="Контур_14" data-name="Контур 14" d="M5.931,2.045A.251.251,0,0,1,6.111,2a11.871,11.871,0,0,1,6.368,3.314,2.97,2.97,0,0,0-.057,2.375C10.259,8.68,7.006,9.94,6.569,9.5c-.52-.531-.483-2.331-.465-3.2l.007-.494a10.061,10.061,0,0,0-.146-1.335C5.855,3.738,5.649,2.373,5.931,2.045Z" transform="translate(2.503 0.522)" fill="#e83628"/>
    <path id="Контур_15" data-name="Контур 15" d="M18,4.5l0-.011L18,4.5Z" transform="translate(8.885 1.826)" fill="#fff" opacity="0.2"/>
    <path id="Контур_16" data-name="Контур 16" d="M20.168,3.933a.457.457,0,0,1,.18.022c.018.01.019.038.033.052.1-.742.2-1.695-.033-1.962A.251.251,0,0,0,20.168,2c-1.507,0-4.244,1.507-6.317,3.427.022.053.031.111.05.166a18.572,18.572,0,0,1,6.267-1.66Z" transform="translate(6.717 0.522)" fill="#fff" opacity="0.2"/>
    <path id="Контур_17" data-name="Контур 17" d="M19.7,6.072a23.478,23.478,0,0,1-5.647-.9,3.105,3.105,0,0,1-.173.872c2.1,1.023,5.374,2.362,5.82,1.912.487-.5.485-2.1.469-3.013C20.154,5.374,20.072,5.884,19.7,6.072Z" transform="translate(6.73 2.062)" opacity="0.2"/>
    <path id="Контур_18" data-name="Контур 18" d="M5.931,3.955a.457.457,0,0,1,.18-.022,18.536,18.536,0,0,1,6.3,1.6c.026-.07.041-.146.072-.214A11.871,11.871,0,0,0,6.11,2a.251.251,0,0,0-.18.044C5.7,2.312,5.8,3.264,5.9,4.006,5.912,3.992,5.913,3.965,5.931,3.955Z" transform="translate(2.503 0.522)" fill="#fff" opacity="0.2"/>
    <path id="Контур_19" data-name="Контур 19" d="M6.463,6.072c-.375-.188-.457-.7-.468-1.129-.016.912-.019,2.516.468,3.014.438.444,3.69-.817,5.853-1.806a3.069,3.069,0,0,1-.2-.922,24.169,24.169,0,0,1-5.653.843Z" transform="translate(2.608 2.061)" opacity="0.2"/>
    <path id="Контур_20" data-name="Контур 20" d="M6,4.492,6,4.5v0Z" transform="translate(2.613 1.826)" fill="#fff" opacity="0.2"/>
    <path id="Контур_21" data-name="Контур 21" d="M20.168,2.941a.313.313,0,0,1,.18.033.486.486,0,0,1,.117.283,2.089,2.089,0,0,0-.117-1.212A.251.251,0,0,0,20.168,2c-1.507,0-4.244,1.507-6.317,3.427.01.024.014.051.023.076a13.814,13.814,0,0,1,6.294-2.563Z" transform="translate(6.717 0.522)" fill="#fff" opacity="0.2"/>
    <path id="Контур_22" data-name="Контур 22" d="M18,4.5l0-.014L18,4.5Z" transform="translate(8.885 1.825)" fill="#fff" opacity="0.2"/>
    <path id="Контур_23" data-name="Контур 23" d="M19.7,6.931c-.439.333-3.608-.634-5.708-1.4a3.439,3.439,0,0,1-.112.4c2.1,1.023,5.374,2.362,5.82,1.912a4.859,4.859,0,0,0,.472-2.7C20.16,5.821,20.081,6.636,19.7,6.931Z" transform="translate(6.73 2.171)" opacity="0.2"/>
    <path id="Контур_24" data-name="Контур 24" d="M5.936,2.974a.313.313,0,0,1,.18-.033,13.643,13.643,0,0,1,6.335,2.472c.013-.032.019-.066.033-.1A11.871,11.871,0,0,0,6.116,2a.251.251,0,0,0-.18.044,2.089,2.089,0,0,0-.117,1.212.486.486,0,0,1,.117-.283Z" transform="translate(2.497 0.522)" fill="#fff" opacity="0.2"/>
    <path id="Контур_25" data-name="Контур 25" d="M6.473,6.931C6.089,6.636,6.01,5.82,6,5.152a4.862,4.862,0,0,0,.472,2.7c.438.444,3.69-.817,5.853-1.806a3.2,3.2,0,0,1-.128-.427C10.038,6.353,6.9,7.259,6.473,6.931Z" transform="translate(2.598 2.17)" opacity="0.2"/>
    <path id="Контур_26" data-name="Контур 26" d="M6,4.491,6,4.5v0Z" transform="translate(2.613 1.825)" fill="#fff" opacity="0.2"/>
    <circle id="Эллипс_2" data-name="Эллипс 2" cx="0.269" cy="0.269" r="0.269" transform="translate(16.976 6.174)" fill="#fff" opacity="0.2"/>
    <path id="Контур_27" data-name="Контур 27" d="M13.177,10.485l-1.561.52a.761.761,0,0,1-.95-1L11.449,8H3v3.045H13.364Z" transform="translate(1.045 3.659)" opacity="0.2"/>
    <path id="Контур_28" data-name="Контур 28" d="M16.151,8l.746,2.02a.761.761,0,0,1-.955.986l-1.561-.52-.187.56H24.557V8Z" transform="translate(6.896 3.659)" opacity="0.2"/>
    <path id="Контур_29" data-name="Контур 29" d="M33.737,4.046H28.689a3.289,3.289,0,0,0-.47-2.472A1.687,1.687,0,0,0,26.885,1a12.249,12.249,0,0,0-6.443,3.045h-5.2A12.361,12.361,0,0,0,8.613,1a1.687,1.687,0,0,0-1.334.573,3.289,3.289,0,0,0-.47,2.472H1.761A.761.761,0,0,0,1,4.807V10.9a.761.761,0,0,0,.761.761h.761V33.738a.761.761,0,0,0,.761.761H32.215a.761.761,0,0,0,.761-.761V11.659h.761A.761.761,0,0,0,34.5,10.9V4.807a.761.761,0,0,0-.761-.761Z" transform="translate(0 0)" fill="url(#linear-gradient)"/>
  </g>
</svg>
